<svg xmlns="http://www.w3.org/2000/svg" viewBox="0 0 265.83 173.83"><defs><style>.cls-1{fill:#333;}.cls-2{fill:#2281f2;}.cls-3{fill:#1fb2fd;}.cls-4{fill:#37edd7;}</style></defs><title>资源 2xxx</title><g id="图层_2" data-name="图层 2"><g id="图层_1-2" data-name="图层 1"><path class="cls-1" d="M33,146.84c0,.45,0,1.34-.05,2.67a17.16,17.16,0,0,1-.19,2.63q-1.22,6.17-5.33,9.11a17.71,17.71,0,0,1-10.53,2.94,19.93,19.93,0,0,1-8.68-1.81,13.46,13.46,0,0,1-6-5.68A19.68,19.68,0,0,1,0,146.84,19.66,19.66,0,0,1,2.22,137a13.48,13.48,0,0,1,6-5.69,20.08,20.08,0,0,1,8.68-1.8,16.26,16.26,0,0,1,11.71,5A14.3,14.3,0,0,1,32,140.09h-6.7A8.68,8.68,0,0,0,22,136.47,9.13,9.13,0,0,0,16.92,135a10.67,10.67,0,0,0-5.35,1.33,9.35,9.35,0,0,0-3.74,4,14.25,14.25,0,0,0-1.37,6.56,14.39,14.39,0,0,0,1.37,6.58,9.12,9.12,0,0,0,3.74,4,10.87,10.87,0,0,0,5.35,1.31,10.47,10.47,0,0,0,5.9-1.67,8.57,8.57,0,0,0,3.5-4.89h-9.4v-5.3Z"/><path class="cls-1" d="M48.83,144.91a9.66,9.66,0,0,0-4,2.07A6,6,0,0,0,43,151.8v12.39H36.87V151.56a11.6,11.6,0,0,1,1.62-6,12.15,12.15,0,0,1,4.36-4.36,11.66,11.66,0,0,1,6-1.61Z"/><path class="cls-1" d="M68.88,141.27A9,9,0,0,1,72,144.43a8.37,8.37,0,0,1,1.18,4.34v15.42H58.61a7.56,7.56,0,0,1-3.92-1.06,7.82,7.82,0,0,1-2.87-2.87,7.57,7.57,0,0,1-1.06-3.93,7.47,7.47,0,0,1,1.06-3.9,7.9,7.9,0,0,1,6.79-3.86h8.54a3.3,3.3,0,0,0-1-2.38,3.1,3.1,0,0,0-2.31-1H55.38v-5.11h9.16A8.27,8.27,0,0,1,68.88,141.27Zm-1.73,17.62V153.2H59.67a2.68,2.68,0,0,0-2,.84,2.9,2.9,0,0,0-.8,2.05,2.69,2.69,0,0,0,.82,1.95,2.63,2.63,0,0,0,2,.85Z"/><path class="cls-1" d="M98.74,142.89q3.11,2.79,3.11,8.53c0,3.82-1,6.67-3.11,8.53a11.62,11.62,0,0,1-8.07,2.79H85.08v11.09H79V140.09H90.67A11.57,11.57,0,0,1,98.74,142.89Zm-8.07,14.55a4.62,4.62,0,0,0,2.43-.72A5.44,5.44,0,0,0,95,154.65a7.33,7.33,0,0,0,0-6.46,5.55,5.55,0,0,0-1.93-2.08,4.62,4.62,0,0,0-2.43-.72H85.08v12.05Z"/><path class="cls-1" d="M112.74,141.54h5.88a7.88,7.88,0,0,1,4,1.08,8,8,0,0,1,2.94,2.94,7.88,7.88,0,0,1,1.08,4v14.6H120.6V150.74a3.86,3.86,0,0,0-3.9-3.9h-4v17.35h-6.07V130.45h6.07Z"/><path class="cls-1" d="M153.91,135.94H142.34a7.5,7.5,0,0,0-4.32,1.21,3.48,3.48,0,0,0-1.32,4.72,3.86,3.86,0,0,0,2.41,1.69,33.88,33.88,0,0,0,4.67.87c1.74.22,3.2.46,4.39.72a11.32,11.32,0,0,1,3.23,1.21,12.09,12.09,0,0,1,3.9,3.49,7.69,7.69,0,0,1,1.5,4.56,8.28,8.28,0,0,1-1.66,5,11,11,0,0,1-4.56,3.5,15.79,15.79,0,0,1-6.31,1.25h-13.5V158.7h13.5a7.47,7.47,0,0,0,4.31-1.21,3.57,3.57,0,0,0,1.76-3,3.24,3.24,0,0,0-.87-2.19,6,6,0,0,0-2.31-1.57,25.73,25.73,0,0,0-3.62-.67l-1.88-.29q-6.75-1.06-9.25-3.57a8.52,8.52,0,0,1-1.93-2.72,7.79,7.79,0,0,1-.67-3.21,8,8,0,0,1,1.68-4.89,11.78,11.78,0,0,1,4.56-3.56,14.72,14.72,0,0,1,6.29-1.33h11.57Z"/><path class="cls-1" d="M179.69,141.66a11.59,11.59,0,0,1,4.29,5.9h-6.65a6.53,6.53,0,0,0-1.88-1.73,4.74,4.74,0,0,0-2.6-.73,5.94,5.94,0,0,0-4.48,1.81,8.73,8.73,0,0,0,0,10.46,5.94,5.94,0,0,0,4.48,1.81,4.77,4.77,0,0,0,2.67-.73,6,6,0,0,0,1.81-1.73H184a11.59,11.59,0,0,1-4.29,5.9,12.38,12.38,0,0,1-7.28,2,12.63,12.63,0,0,1-8.84-3.08q-3.39-3.09-3.4-9.45t3.4-9.45a12.68,12.68,0,0,1,8.84-3.08A12.38,12.38,0,0,1,179.69,141.66Z"/><path class="cls-1" d="M205.17,141.27a10.85,10.85,0,0,1,4.14,4.51,15,15,0,0,1,0,12.72,10.85,10.85,0,0,1-4.14,4.51,13.5,13.5,0,0,1-13,0,10.85,10.85,0,0,1-4.14-4.51,14.86,14.86,0,0,1,0-12.72,10.85,10.85,0,0,1,4.14-4.51,13.5,13.5,0,0,1,13,0Zm-2,16.1a9.92,9.92,0,0,0,0-10.46,6.05,6.05,0,0,0-9,0,10,10,0,0,0,0,10.46,6.05,6.05,0,0,0,9,0Z"/><path class="cls-1" d="M235.29,142.89c2.08,1.86,3.11,4.7,3.11,8.53s-1,6.67-3.11,8.53a11.62,11.62,0,0,1-8.07,2.79h-5.59v11.09h-6.08V140.09h11.67A11.57,11.57,0,0,1,235.29,142.89Zm-8.07,14.55a4.6,4.6,0,0,0,2.43-.72,5.44,5.44,0,0,0,1.93-2.07,7.33,7.33,0,0,0,0-6.46,5.55,5.55,0,0,0-1.93-2.08,4.6,4.6,0,0,0-2.43-.72h-5.59v12.05Z"/><path class="cls-1" d="M259.68,140.89a10.09,10.09,0,0,1,4.46,4,13.16,13.16,0,0,1,1.69,7v3H248q1,3.86,5.26,4h8.87v5.3h-8.58a13,13,0,0,1-9-3q-3.34-3-3.35-9.3A12.91,12.91,0,0,1,243,145a10.53,10.53,0,0,1,4.49-4.05,15,15,0,0,1,12.19,0Zm.07,9.18a5.79,5.79,0,0,0-1.73-3.74,6,6,0,0,0-4.29-1.42,5.4,5.4,0,0,0-6,5.16Z"/><path class="cls-2" d="M132.84,45.54V36.22l2.94-2,6.44-4.45v-6.1l-14.13,9.43a26.21,26.21,0,0,0-6.4,5.84v.2Z"/><path class="cls-2" d="M108.61,37.91c2.88-6.29,11.59-13,11.59-13L149,6,137.81,0,116,14.15S94.35,27.31,96,48.93c1.3,17,22.42,22.2,22.42,22.2C106,66.08,104.57,46.73,108.61,37.91Z"/><path class="cls-3" d="M149,6l-28.77,19s-8.71,6.69-11.59,13c-4.32,9.42-2.34,31,12.51,34,0,0,6.2,1.49,17.19-4.72,5.75-3.25,13.35,3.22,13.35,3.22,8.66-6.62,2.16-13-4.81-15.33C140,52.8,135,57.41,127.63,59.3s-9.28-6.51-9.28-6.51-3.46-10.92,9.74-19.72l14.13-9.43v6.1l-9.38,6.48v9.32l16.45-10.95Z"/><path class="cls-4" d="M162.42,50.1c-8.19-6.77-19.52-6.33-28.5-3.55-4.87,1.51-15.56,6.24-15.56,6.24a10.74,10.74,0,0,0,.45,1.4c.06.15.13.32.21.49s.15.33.24.5.25.49.4.74.2.32.31.48.34.47.52.7.3.34.46.5a6.57,6.57,0,0,0,2.58,1.66l.5.14a7.28,7.28,0,0,0,3.6-.1h.05c4.75-1.23,8.34-3.55,12-4.34a12.16,12.16,0,0,1,7.2.17c7,2.38,13.47,8.71,4.81,15.33h0L128.77,85.21h0l-6.28-3.66,14.06-8.64-9.21-4.82L104.09,82h0l16.07,8.73h0l11.33,6.15,32-21.14S178.64,63.52,162.42,50.1Z"/><path class="cls-3" d="M169.9,63.41h0s0,.08,0,.12c-.18,7.18-6.44,12.25-6.44,12.25l-32,21.14v15.19l33-23c5.51-3.21,5.41-10.33,5.41-10.33Z"/><polygon class="cls-2" points="136.56 72.91 136.56 72.91 136.56 72.91 122.5 81.55 128.65 85.14 128.87 85.15 136.56 80.19 136.56 72.91"/><polygon class="cls-2" points="131.49 96.92 104.09 82.03 104.1 96.21 131.5 112.11 131.49 96.92"/></g></g></svg>